# xmcd
#
# Track frame offsets:
#	150
#	15610
#	33663
#	49200
#	66807
#	87631
#	108545
#	130774
#	147341
#	168797
#	186456
#	205657
#	218632
#	239925
#	255819
#	274034
#	290156
#
# Disc length: 4110 seconds
# Revision: 1
# Processed by: cddbd v1.5.2PL0 Copyright (c) Steve Scherf et al.
# Submitted via: dBpowerAMP V12.0
#
DISCID=07100c11
DTITLE=Sara Evans - Real Fine Place
DYEAR=2005
DGENRE=Country
TTITLE0=Coalmine
TTITLE1=A Real Fine Place To Start
TTITLE2=Cheatin'
TTITLE3=New Hometown
TTITLE4=You'll Always Be My Baby
TTITLE5=Supernatural
TTITLE6=Roll Me Back In Time
TTITLE7=The Secrets That We Keep
TTITLE8=Bible Songs
TTITLE9=Tell Me
TTITLE10=Missing Missouri
TTITLE11=Momma's Night Out
TTITLE12=These Four Walls
TTITLE13=Caged (Target Bonus)
TTITLE14=Best Days Are Coming (Target Bonus)
TTITLE15=You (Target Bonus)
TTITLE16=Suds In The Bucket (live) (Target Bonus)
EXTD=
EXTT0=
EXTT1=
EXTT2=
EXTT3=
EXTT4=
EXTT5=
EXTT6=
EXTT7=
EXTT8=
EXTT9=
EXTT10=
EXTT11=
EXTT12=
EXTT13=
EXTT14=
EXTT15=
EXTT16=
PLAYORDER=
